ply
format ascii 1.0
comment created by MATLAB plywrite
element vertex 64
property float x
property float y
property float z
element face 48
property list uchar char vertex_indices
end_header
-2.160000 -0.776497 0.976716 
1.440000 -0.776497 0.976716 
1.440000 -0.588503 0.975313 
-2.160000 -0.588503 0.975313 
-2.160000 -0.776363 0.994716 
1.440000 -0.776363 0.994716 
1.440000 -0.588368 0.993313 
-2.160000 -0.588368 0.993313 
-2.160000 -0.691365 0.994082 
1.440000 -0.691365 0.994082 
1.440000 -0.673366 0.993947 
-2.160000 -0.673366 0.993947 
-2.160000 -0.687634 1.494068 
1.440000 -0.687634 1.494068 
1.440000 -0.669635 1.493933 
-2.160000 -0.669635 1.493933 
-2.160000 -0.772632 1.494702 
1.440000 -0.772632 1.494702 
1.440000 -0.584637 1.493299 
-2.160000 -0.584637 1.493299 
-2.160000 -0.772497 1.512701 
1.440000 -0.772497 1.512701 
1.440000 -0.584503 1.511299 
-2.160000 -0.584503 1.511299 
-2.160000 -0.772497 1.512701 
1.440000 -0.772497 1.512701 
1.440000 -0.110016 1.507757 
-2.160000 -0.110016 1.507757 
-2.160000 -0.772363 1.530701 
1.440000 -0.772363 1.530701 
1.440000 -0.109882 1.525757 
-2.160000 -0.109882 1.525757 
-2.160000 0.478503 0.975313 
1.440000 0.478503 0.975313 
1.440000 0.666497 0.976716 
-2.160000 0.666497 0.976716 
-2.160000 0.478368 0.993313 
1.440000 0.478368 0.993313 
1.440000 0.666363 0.994716 
-2.160000 0.666363 0.994716 
-2.160000 0.563366 0.993947 
1.440000 0.563366 0.993947 
1.440000 0.581365 0.994082 
-2.160000 0.581365 0.994082 
-2.160000 0.559635 1.493933 
1.440000 0.559635 1.493933 
1.440000 0.577634 1.494068 
-2.160000 0.577634 1.494068 
-2.160000 0.474637 1.493299 
1.440000 0.474637 1.493299 
1.440000 0.662632 1.494702 
-2.160000 0.662632 1.494702 
-2.160000 0.474503 1.511299 
1.440000 0.474503 1.511299 
1.440000 0.662497 1.512701 
-2.160000 0.662497 1.512701 
-2.160000 0.000016 1.507757 
1.440000 0.000016 1.507757 
1.440000 0.662497 1.512701 
-2.160000 0.662497 1.512701 
-2.160000 -0.000118 1.525757 
1.440000 -0.000118 1.525757 
1.440000 0.662363 1.530701 
-2.160000 0.662363 1.530701 
4 0 3 2 1 
4 0 4 7 3 
4 0 1 5 4 
4 2 6 5 1 
4 3 7 6 2 
4 4 5 6 7 
4 8 11 10 9 
4 8 12 15 11 
4 8 9 13 12 
4 10 14 13 9 
4 11 15 14 10 
4 12 13 14 15 
4 16 19 18 17 
4 16 20 23 19 
4 16 17 21 20 
4 18 22 21 17 
4 19 23 22 18 
4 20 21 22 23 
4 24 27 26 25 
4 24 28 31 27 
4 24 25 29 28 
4 26 30 29 25 
4 27 31 30 26 
4 28 29 30 31 
4 32 35 34 33 
4 32 36 39 35 
4 32 33 37 36 
4 34 38 37 33 
4 35 39 38 34 
4 36 37 38 39 
4 40 43 42 41 
4 40 44 47 43 
4 40 41 45 44 
4 42 46 45 41 
4 43 47 46 42 
4 44 45 46 47 
4 48 51 50 49 
4 48 52 55 51 
4 48 49 53 52 
4 50 54 53 49 
4 51 55 54 50 
4 52 53 54 55 
4 56 59 58 57 
4 56 60 63 59 
4 56 57 61 60 
4 58 62 61 57 
4 59 63 62 58 
4 60 61 62 63 
