ply
format ascii 1.0
comment created by MATLAB plywrite
element vertex 24
property float x
property float y
property float z
element face 18
property list uchar char vertex_indices
end_header
0.000000 -0.094000 0.000000 
3.600000 -0.094000 0.000000 
3.600000 0.094000 0.000000 
0.000000 0.094000 0.000000 
0.000000 -0.094000 0.018000 
3.600000 -0.094000 0.018000 
3.600000 0.094000 0.018000 
0.000000 0.094000 0.018000 
0.000000 -0.009000 0.018000 
3.600000 -0.009000 0.018000 
3.600000 0.009000 0.018000 
0.000000 0.009000 0.018000 
0.000000 -0.009000 0.518000 
3.600000 -0.009000 0.518000 
3.600000 0.009000 0.518000 
0.000000 0.009000 0.518000 
0.000000 -0.094000 0.518000 
3.600000 -0.094000 0.518000 
3.600000 0.094000 0.518000 
0.000000 0.094000 0.518000 
0.000000 -0.094000 0.536000 
3.600000 -0.094000 0.536000 
3.600000 0.094000 0.536000 
0.000000 0.094000 0.536000 
4 0 3 2 1 
4 0 4 7 3 
4 0 1 5 4 
4 2 6 5 1 
4 3 7 6 2 
4 4 5 6 7 
4 8 11 10 9 
4 8 12 15 11 
4 8 9 13 12 
4 10 14 13 9 
4 11 15 14 10 
4 12 13 14 15 
4 16 19 18 17 
4 16 20 23 19 
4 16 17 21 20 
4 18 22 21 17 
4 19 23 22 18 
4 20 21 22 23 
